<?xml version="1.0" encoding="UTF-8"?>
<!-- Generator: visioncortex VTracer 0.6.12 -->
<svg version="1.1" xmlns="http://www.w3.org/2000/svg" width="512" height="512">
<path d="M0 0 C0.3300000000000409 0.9899999999999949 0.6599999999999682 1.980000000000004 1 3 C2.967665306474828 3.7567943486441635 4.979752014729456 4.397469899129831 7 5 C13.87136884300321 7.397287264256732 20.201584372547245 10.588602121673574 26.558349609375 14.09423828125 C30.617275618443387 16.32179682007643 34.72942879079858 18.196978516938984 39 20 C40.98692713681521 20.984490349080048 42.966468647137674 21.984059007383706 44.9375 23 C48.35323955360951 24.729164911178884 51.703287558270176 26.34702983580773 55.3125 27.625 C58.48162762996071 28.806708607781957 61.173839970375184 30.2143277378989 64.084228515625 31.90771484375 C67.26751400064586 33.72267842983173 70.53516101812721 35.36271803615162 73.8125 37 C74.16646850585937 37.177326660156254 74.16646850585937 37.177326660156254 75.957763671875 38.07470703125 C79.52794568398014 39.84327130607724 83.07183591176687 41.492007995547596 86.8125 42.875 C92.85393917914064 45.15342672114349 98.46538448434364 48.32447734365212 104.137939453125 51.38427734375 C107.69544474403779 53.29639527549023 111.2064930981461 55.13591668401182 114.94921875 56.66015625 C120.01669079429439 58.885691347558236 121.31763964058939 62.260943660812416 123.24609375 67.17578125 C124.10491213917834 69.46681309531544 124.94195919260932 71.76615940981074 125.75390625 74.07421875 C127 77 127 77 128.3681640625 78.27685546875 C130.6896799274407 80.72827063552904 131.88108887396328 83.4643025835951 133.35546875 86.49609375 C133.66196853637695 87.12604751586915 133.9684683227539 87.75600128173829 134.2842559814453 88.40504455566406 C134.92857265252206 89.7340845984395 135.56967771040627 91.06468583098442 136.207763671875 92.396728515625 C137.18476757380358 94.4318084100234 138.1766185173018 96.45916336604498 139.169921875 98.486328125 C139.79518222512877 99.78081017535152 140.41956126763534 101.07571836230068 141.04296875 102.37109375 C141.32668334960937 102.95854370117189 141.32668334960937 102.95854370117189 142.762451171875 105.931396484375 C144 108.99999999999994 144 108.99999999999994 144 113 C144.66000000000003 113 145.32 113 146 113 C148.5111534712425 117.99747429747805 151.0196069918665 122.99629129352854 153.525634765625 127.996337890625 C154.3774438386547 129.69494634568386 155.22997252967014 131.3931941382889 156.083251953125 133.091064453125 C157.31393571614126 135.54021853842713 158.5419732089311 137.9906843005426 159.76953125 140.44140625 C160.14777542114257 141.19273330688478 160.52601959228514 141.94406036376952 160.9157257080078 142.71815490722656 C163.10114282761526 147.08853081476082 165.07698183990124 151.50624438736378 167 156 C168.09845972712498 158.20929135386467 169.217566406056 160.40841886816506 170.35546875 162.59765625 C170.98432098601143 163.82326155993235 171.6125582704156 165.0491825601902 172.240234375 166.275390625 C173.21546602140631 168.17639099554978 174.19414543682922 170.0752222888451 175.183349609375 171.968994140625 C176.14777310086373 173.81884479207986 177.09649736019787 175.67607039651068 178.04296875 177.53515625 C178.32668334960937 178.0836926269531 178.32668334960937 178.0836926269531 179.762451171875 180.859619140625 C181.06319908257694 184.16037281499058 181.25002890590542 186.48803519617945 181 190 C178.87767021368984 191.17176517779376 176.75242208979085 192.3375478454518 174.625 193.5 C174.323359375 193.66693359375 174.323359375 193.66693359375 172.796875 194.51171875 C168.22656249999994 197 168.22656249999994 197 166 197 C160.33333333333337 185.66666666666674 154.66666666666663 174.33333333333331 149 163 C148.67000000000002 221.40999999999997 148.33999999999997 279.82 148 340 C119.62 340.33 91.24000000000001 340.66 62 341 C62 302.06 62 263.12 62 223 C42.860000000000014 223 23.720000000000027 223 4 223 C4 261.94 4 300.88 4 341 C-1.9399999999999977 341 -7.8799999999999955 341 -14 341 C-14 302.06 -14 263.12 -14 223 C-33.139999999999986 223 -52.28 223 -72 223 C-72 261.94 -72 300.88 -72 341 C-100.66860458565935 341 -129.334588087059 340.42784196884986 -158 340 C-158 281.59 -158 223.18 -158 163 C-160 164 -160 164 -160.89453125 166.22265625 C-161.1974609375 167.1598046875 -161.500390625 168.096953125 -161.8125 169.0625 C-163.34377994842373 173.4635119999141 -165.12711536081704 177.09489458203177 -167.69921875 180.95703125 C-170.84468213690565 185.89720347628128 -173.78422146760693 191.23826695518073 -175 197 C-179.59808129329156 196.4610557534569 -182.86784368707833 195.23428471594292 -186.875 192.9375 C-187.841796875 192.3896484375 -188.80859375 191.841796875 -189.8046875 191.27734375 C-190.529140625 190.8558203125 -191.25359375 190.43429687499997 -192 190 C-191.44460492503947 185.82229682595107 -190.4962209351234 182.4577309103384 -188.671875 178.6640625 C-188.43662109375 178.17292968750002 -188.43662109375 178.17292968750002 -187.24609375 175.6875 C-186.99923828125 175.1821875 -186.99923828125 175.1821875 -185.75 172.625 C-185.2717578125 171.62210937500004 -184.793515625 170.61921874999996 -184.30078125 169.5859375 C-182.1876749668392 165.21083397605733 -180.05729098576927 160.96377592087796 -177.390625 156.8984375 C-175.0642118505717 153.30992911885335 -173.56919300355838 149.61949237443207 -172.0498046875 145.6328125 C-170.18489164970146 140.95578408148387 -167.89042248178063 136.49308792219827 -165.625 132 C-165.168671875 131.079609375 -164.71234375 130.15921875 -164.2421875 129.2109375 C-161.506373456417 123.75467915465191 -158.5449984560456 118.51721641262208 -155.36572265625 113.30859375 C-153.4782085139964 110.1179727758938 -151.92110792802455 106.87066183360801 -150.375 103.5 C-150.07779052734375 102.85474365234376 -149.7805810546875 102.20948730468751 -149.474365234375 101.544677734375 C-147.89639184898388 98.08781510870423 -146.4207769722742 94.61077420510401 -145.0625 91.0625 C-142.49847835021575 84.45986914218648 -139.21506205255213 78.19791630810585 -135.97412109375 71.908203125 C-135.0936875621968 70.18352430730081 -134.24231999829104 68.44408291619862 -133.39453125 66.703125 C-127.449959643157 54.909604922080945 -117.77815044664834 51.60946261464298 -105.875 47 C-101.73929402937011 45.38367187540257 -97.99829910637766 43.37655133490631 -94.16015625 41.15625 C-91.47043860096935 39.716545797263876 -88.7158553906749 38.75054394726358 -85.83984375 37.75390625 C-84 37 -84 37 -80.875 34.875 C-77.80490281867856 32.87276270783383 -75.61348450845463 32.344141381757595 -72 32 C-72 31.340000000000003 -72 30.680000000000007 -72 30 C-69.69 29.67 -67.38 29.340000000000003 -65 29 C-65 28.340000000000003 -65 27.680000000000007 -65 27 C-58.50870400530283 23.653971136754038 -52.0465036483329 20.552072945781504 -45.23046875 17.9296875 C-43.19586684965756 17.08163977271191 -41.385664804305264 16.134036176015755 -39.5 15 C-34.1191166402684 11.766357505909511 -28.119543004656407 9.392723580370074 -22 8 C-22 7.340000000000003 -22 6.680000000000007 -22 6 C-14.460997122006177 2.0848454914900714 -8.581757923036719 -0.872721144715598 0 0 Z " fill="#B83124" transform="translate(261,86)"/>
<path d="M0 0 C0.3300000000000409 0.9899999999999949 0.6599999999999682 1.980000000000004 1 3 C2.967665306474828 3.7567943486441635 4.979752014729456 4.397469899129831 7 5 C13.87136884300321 7.397287264256732 20.201584372547245 10.588602121673574 26.558349609375 14.09423828125 C30.617275618443387 16.32179682007643 34.72942879079858 18.196978516938984 39 20 C40.98692713681521 20.984490349080048 42.966468647137674 21.984059007383706 44.9375 23 C48.35323955360951 24.729164911178884 51.703287558270176 26.34702983580773 55.3125 27.625 C58.48162762996071 28.806708607781957 61.173839970375184 30.2143277378989 64.084228515625 31.90771484375 C67.26751400064586 33.72267842983173 70.53516101812721 35.36271803615162 73.8125 37 C74.16646850585937 37.177326660156254 74.16646850585937 37.177326660156254 75.957763671875 38.07470703125 C79.52794568398014 39.84327130607724 83.07183591176687 41.492007995547596 86.8125 42.875 C92.85393917914064 45.15342672114349 98.46538448434364 48.32447734365212 104.137939453125 51.38427734375 C107.69544474403779 53.29639527549023 111.2064930981461 55.13591668401182 114.94921875 56.66015625 C120.01669079429439 58.885691347558236 121.31763964058939 62.260943660812416 123.24609375 67.17578125 C124.10491213917834 69.46681309531544 124.94195919260932 71.76615940981074 125.75390625 74.07421875 C127 77 127 77 128.3681640625 78.27685546875 C130.6896799274407 80.72827063552904 131.88108887396328 83.4643025835951 133.35546875 86.49609375 C133.66196853637695 87.12604751586915 133.9684683227539 87.75600128173829 134.2842559814453 88.40504455566406 C134.92857265252206 89.7340845984395 135.56967771040627 91.06468583098442 136.207763671875 92.396728515625 C137.18476757380358 94.4318084100234 138.1766185173018 96.45916336604498 139.169921875 98.486328125 C139.79518222512877 99.78081017535152 140.41956126763534 101.07571836230068 141.04296875 102.37109375 C141.32668334960937 102.95854370117189 141.32668334960937 102.95854370117189 142.762451171875 105.931396484375 C144 108.99999999999994 144 108.99999999999994 144 113 C144.66000000000003 113 145.32 113 146 113 C148.5111534712425 117.99747429747805 151.0196069918665 122.99629129352854 153.525634765625 127.996337890625 C154.3774438386547 129.69494634568386 155.22997252967014 131.3931941382889 156.083251953125 133.091064453125 C157.31393571614126 135.54021853842713 158.5419732089311 137.9906843005426 159.76953125 140.44140625 C160.14777542114257 141.19273330688478 160.52601959228514 141.94406036376952 160.9157257080078 142.71815490722656 C163.10114282761526 147.08853081476082 165.07698183990124 151.50624438736378 167 156 C168.09845972712498 158.20929135386467 169.217566406056 160.40841886816506 170.35546875 162.59765625 C170.98432098601143 163.82326155993235 171.6125582704156 165.0491825601902 172.240234375 166.275390625 C173.21546602140631 168.17639099554978 174.19414543682922 170.0752222888451 175.183349609375 171.968994140625 C176.14777310086373 173.81884479207986 177.09649736019787 175.67607039651068 178.04296875 177.53515625 C178.32668334960937 178.0836926269531 178.32668334960937 178.0836926269531 179.762451171875 180.859619140625 C181.06319908257694 184.16037281499058 181.25002890590542 186.48803519617945 181 190 C178.87767021368984 191.17176517779376 176.75242208979085 192.3375478454518 174.625 193.5 C174.323359375 193.66693359375 174.323359375 193.66693359375 172.796875 194.51171875 C168.22656249999994 197 168.22656249999994 197 166 197 C165.75765624999997 196.5153125 165.75765624999997 196.5153125 164.53125 194.0625 C164.2117236328125 193.42352783203125 163.892197265625 192.7845556640625 163.56298828125 192.126220703125 C162.84235134321943 190.68478131559442 162.12198219697177 189.24320802217233 161.40185546875 187.801513671875 C159.6202942118146 184.23569299080418 157.8359774449898 180.67139264718935 156.0390625 177.11328125 C152.29501570472564 169.6855137331347 148.67038472101524 162.2122580423949 145.125 154.6875 C141.8579978152601 147.75543405721078 138.4345020081708 140.94060744222617 134.8125 134.1875 C131.4521391251763 127.91985337405816 128.44458635819444 121.61251003815525 125.682861328125 115.061767578125 C122.32529244186566 107.21832254240306 118.21560950668771 99.77047646272325 114.19580078125 92.25244140625 C112.40311928403946 88.87569998255373 110.65852486166784 85.47623137370104 108.9375 82.0625 C108.3896484375 80.98097656250002 107.841796875 79.89945312499998 107.27734375 78.78515625 C106 76 106 76 105.84912109375 73.9931640625 C105 72 105 72 102.076904296875 70.619873046875 C100.76763001723714 70.17565213750152 99.45378520632204 69.74477469785614 98.13671875 69.32421875 C89.16949872795806 66.21324617971706 80.76017370929515 62.22286598936785 72.259521484375 58.021728515625 C69.78021257440366 56.79654473521114 67.29588985818572 55.58203078866171 64.810546875 54.369140625 C63.213248141938436 53.58653630108307 61.616232006846246 52.80335486762084 60.01953125 52.01953125 C59.28620071411132 51.660109405517574 58.55287017822263 51.30068756103515 57.79731750488281 50.93037414550781 C54.09282595846088 49.097452362605225 50.52934344274405 47.15771406787667 47 45 C45.45226364987036 44.33928565893626 43.88896299110536 43.713893613206295 42.3125 43.125 C35.77836828064176 40.569001415662825 29.61580698975456 37.42881374422632 23.45703125 34.078125 C16.55347841164894 30.329999646394043 9.72424678460925 26.873134672675178 2.390625 24.0078125 C0 23 0 23 -3 21 C-8.794228567583701 21.09990049254455 -12.460917130110602 22.537593108615127 -17.38671875 25.47265625 C-20.50816784328299 27.297000936806654 -23.706127629769895 28.944433031490945 -26.9375 30.5625 C-27.543439941406263 30.866235351562494 -28.149379882812497 31.169970703125003 -28.773681640625 31.48291015625 C-32.152176533416736 33.15326934479178 -35.53983808588461 34.66322438764024 -39.0625 36 C-44.2620823840019 37.98079328914358 -49.00126050934128 40.674128470924714 -53.8671875 43.35546875 C-56.44253420107455 44.707365210289765 -58.90357959913172 45.812117239402085 -61.625 46.8125 C-67.7136098823211 49.095728705870414 -73.35051349008722 52.27752563160547 -79.04931640625 55.384033203125 C-83.94221652419992 58.02446154470297 -88.77529085853968 60.104818845049124 -94 62 C-95.34789347383867 62.98028616279174 -96.68212715397681 63.97971134501432 -98 65 C-101.16235758102997 66.45468448727377 -104.18792459782259 67.76726344406009 -107.53515625 68.7265625 C-108.4104296875 69.00242187499998 -109.285703125 69.27828125000002 -110.1875 69.5625 C-111.00605468750001 69.79066406250001 -111.824609375 70.018828125 -112.66796875 70.25390625 C-115.89498648264953 72.67011550710947 -116.5364920603852 75.32894349622364 -117.885498046875 79.059814453125 C-119.9475284724115 84.49969011900367 -122.68941115090539 89.6260840953446 -125.3125 94.8125 C-125.88991943359375 95.96234375 -126.4673388671875 97.1121875 -127.062255859375 98.296875 C-129.97761001218743 104.08080633540376 -132.942949918238 109.8237751773157 -136.0625 115.5 C-138.34660654760933 119.6615307099126 -140.1728990793265 123.80380266602725 -141.859375 128.234375 C-145.14180745710797 136.19314958778236 -149.28625082874794 143.8533798421652 -153.37890625 151.421875 C-157.15082415452304 158.4015845909961 -160.59933150422313 165.10302542445322 -163.11328125 172.65625 C-164.26889827373796 175.71074433587125 -165.89566075616509 178.24890237380828 -167.69921875 180.95703125 C-170.84468213690565 185.89720347628128 -173.78422146760693 191.23826695518073 -175 197 C-179.59808129329156 196.4610557534569 -182.86784368707833 195.23428471594292 -186.875 192.9375 C-187.841796875 192.3896484375 -188.80859375 191.841796875 -189.8046875 191.27734375 C-190.529140625 190.8558203125 -191.25359375 190.43429687499997 -192 190 C-191.44460492503947 185.82229682595107 -190.4962209351234 182.4577309103384 -188.671875 178.6640625 C-188.43662109375 178.17292968750002 -188.43662109375 178.17292968750002 -187.24609375 175.6875 C-186.99923828125 175.1821875 -186.99923828125 175.1821875 -185.75 172.625 C-185.2717578125 171.62210937500004 -184.793515625 170.61921874999996 -184.30078125 169.5859375 C-182.1876749668392 165.21083397605733 -180.05729098576927 160.96377592087796 -177.390625 156.8984375 C-175.0642118505717 153.30992911885335 -173.56919300355838 149.61949237443207 -172.0498046875 145.6328125 C-170.18489164970146 140.95578408148387 -167.89042248178063 136.49308792219827 -165.625 132 C-165.168671875 131.079609375 -164.71234375 130.15921875 -164.2421875 129.2109375 C-161.506373456417 123.75467915465191 -158.5449984560456 118.51721641262208 -155.36572265625 113.30859375 C-153.4782085139964 110.1179727758938 -151.92110792802455 106.87066183360801 -150.375 103.5 C-150.07779052734375 102.85474365234376 -149.7805810546875 102.20948730468751 -149.474365234375 101.544677734375 C-147.89639184898388 98.08781510870423 -146.4207769722742 94.61077420510401 -145.0625 91.0625 C-142.49847835021575 84.45986914218648 -139.21506205255213 78.19791630810585 -135.97412109375 71.908203125 C-135.0936875621968 70.18352430730081 -134.24231999829104 68.44408291619862 -133.39453125 66.703125 C-127.449959643157 54.909604922080945 -117.77815044664834 51.60946261464298 -105.875 47 C-101.73929402937011 45.38367187540257 -97.99829910637766 43.37655133490631 -94.16015625 41.15625 C-91.47043860096935 39.716545797263876 -88.7158553906749 38.75054394726358 -85.83984375 37.75390625 C-84 37 -84 37 -80.875 34.875 C-77.80490281867856 32.87276270783383 -75.61348450845463 32.344141381757595 -72 32 C-72 31.340000000000003 -72 30.680000000000007 -72 30 C-69.69 29.67 -67.38 29.340000000000003 -65 29 C-65 28.340000000000003 -65 27.680000000000007 -65 27 C-58.50870400530283 23.653971136754038 -52.0465036483329 20.552072945781504 -45.23046875 17.9296875 C-43.19586684965756 17.08163977271191 -41.385664804305264 16.134036176015755 -39.5 15 C-34.1191166402684 11.766357505909511 -28.119543004656407 9.392723580370074 -22 8 C-22 7.340000000000003 -22 6.680000000000007 -22 6 C-14.460997122006177 2.0848454914900714 -8.581757923036719 -0.872721144715598 0 0 Z " fill="#2E5984" transform="translate(261,86)"/>
<path d="M0 0 C33.66 0 67.32 0 102 0 C102 32.34 102 64.68 102 98 C68.34000000000003 98 34.68000000000001 98 0 98 C0 65.66 0 33.31999999999999 0 0 Z " fill="#295B82" transform="translate(205,158)"/>
<path d="M0 0 C56.75999999999999 0 113.51999999999998 0 172 0 C172.020625 22.419375000000002 172.04125 44.838750000000005 172.0625 67.9375 C172.07160400390626 75.02855224609374 172.08070800781252 82.11960449218748 172.090087890625 89.425537109375 C172.0946044921875 98.05383300778954 172.0946044921875 98.05383300778954 172.09544372558594 102.08717346191406 C172.09637913001347 104.91713741561131 172.10014144446302 107.74708279868287 172.10557556152344 110.57704162597656 C172.11240331051147 114.18015846842707 172.11449700104737 117.78324806629985 172.11307227611542 121.3863707780838 C172.11351179466442 123.34161651041978 172.1188914311956 125.29685918903164 172.12442874908447 127.25209712982178 C172.12305125236514 128.39540272712708 172.12167375564576 129.53870832443238 172.12025451660156 130.71665954589844 C172.12071541309354 131.21765403270723 172.12071541309354 131.21765403270723 172.12304782867432 133.75298976898193 C172 136 172 136 171 137 C165.06 137 159.12 137 153 137 C153 98.06 153 59.120000000000005 153 19 C133.86 19 114.72000000000003 19 95 19 C95 57.94 95 96.88 95 137 C89.06 137 83.12 137 77 137 C77 98.06 77 59.120000000000005 77 19 C57.860000000000014 19 38.72 19 19 19 C19 57.94 19 96.88 19 137 C12.72999999999999 137 6.460000000000008 137 0 137 C0 91.78999999999996 0 46.579999999999984 0 0 Z " fill="#2D5B80" transform="translate(170,290)"/>
<path d="M0 0 C19.139999999999986 0 38.27999999999997 0 58 0 C58 38.94 58 77.88 58 118 C38.860000000000014 118 19.720000000000027 118 0 118 C0 79.06 0 40.120000000000005 0 0 Z " fill="#F0C340" transform="translate(265,309)"/>
<path d="M0 0 C19.139999999999986 0 38.28 0 58 0 C58 38.94 58 77.88 58 118 C38.860000000000014 118 19.72 118 0 118 C0 79.06 0 40.120000000000005 0 0 Z " fill="#F0C340" transform="translate(189,309)"/>
<path d="M0 0 C7.920000000000016 0 15.839999999999975 0 24 0 C24 20.460000000000008 24 40.920000000000016 24 62 C16.079999999999984 62 8.160000000000025 62 0 62 C0 41.53999999999999 0 21.079999999999984 0 0 Z " fill="#EAC243" transform="translate(265,176)"/>
<path d="M0 0 C7.9199999999999875 0 15.840000000000003 0 24 0 C24 20.460000000000008 24 40.920000000000016 24 62 C16.079999999999984 62 8.159999999999997 62 0 62 C0 41.53999999999999 0 21.079999999999984 0 0 Z " fill="#EAC243" transform="translate(223,176)"/>
<path d="M0 0 C0.6599999999999966 0.3300000000000125 1.3199999999999932 0.6599999999999966 2 1 C1.6699999999999875 1.4950000000000045 1.6699999999999875 1.4950000000000045 0 4 C-0.6599999999999966 4 -1.3199999999999932 4 -2 4 C-2.1031250000000057 4.7012499999999875 -2.2062500000000114 5.402500000000003 -2.3125 6.125 C-3.0935900264342706 9.391376474179623 -4.420587432862163 12.047185200568407 -6 15 C-6.659999999999997 15 -7.319999999999993 15 -8 15 C-6.532038304815103 9.661957472054922 -3.985196755313865 3.985196755313865 0 0 Z " fill="#5C4598" transform="translate(134,143)"/>
<path d="M0 0 C-2.3100000000000023 1.6500000000000057 -4.6200000000000045 3.3000000000000114 -7 5 C-6.625 2.5625 -6.625 2.5625 -6 0 C-4 -1 -4 -1 0 0 Z " fill="#863E43" transform="translate(152,157)"/>
</svg>
